<svg width="1200" height="600" viewBox="0 0 1200 600" xmlns="http://www.w3.org/2000/svg" font-family="'Segoe UI', system-ui, sans-serif">
  <defs>
    <radialGradient id="glow" cx="50%" cy="40%" r="65%">
      <stop offset="0%" stop-color="#38bdf8" stop-opacity="0.16"/>
      <stop offset="55%" stop-color="#38bdf8" stop-opacity="0.05"/>
      <stop offset="100%" stop-color="#0d1117" stop-opacity="0"/>
    </radialGradient>
    <linearGradient id="card" x1="0" y1="0" x2="0" y2="1">
      <stop offset="0%" stop-color="#1c2430"/>
      <stop offset="100%" stop-color="#12161d"/>
    </linearGradient>
  </defs>
  <rect width="1200" height="600" fill="#0d1117"/>
  <rect width="1200" height="600" fill="url(#glow)"/>
  <g stroke="#30363d" stroke-opacity="0.18" stroke-width="1">
    <path d="M0 150 H1200 M0 300 H1200 M0 450 H1200"/>
    <path d="M300 0 V600 M600 0 V600 M900 0 V600"/>
  </g>
  <text x="600" y="60" text-anchor="middle" fill="#38bdf8" font-size="17" letter-spacing="4" font-weight="600">SLNX&#160;&#160;+&#160;&#160;CENTRAL&#160;&#160;PACKAGE&#160;&#160;MANAGEMENT</text>

  <!-- Left: before -->
  <g>
    <rect x="80" y="110" width="490" height="200" rx="14" fill="url(#card)" stroke="#f85149" stroke-width="2"/>
    <text x="325" y="146" text-anchor="middle" fill="#f85149" font-size="16" font-weight="700">.sln — 25 ans d'âge</text>
    <rect x="110" y="164" width="430" height="110" rx="8" fill="#0d1117" stroke="#30363d"/>
    <g font-size="11" font-family="Consolas, monospace" fill="#6e7681">
      <text x="126" y="190">Project("{FAE04EC0-301F-11D3-BF4B-00C04F79EFBC}")</text>
      <text x="126" y="212">= "Orders.Api", "{8FC72E5A-9D1C-4A6B...}"</text>
      <text x="126" y="234">GlobalSection(ProjectConfigurationPlatforms)</text>
      <text x="126" y="256">{8FC72E5A...}.Debug|Any CPU.ActiveCfg = ...</text>
    </g>
    <text x="325" y="296" text-anchor="middle" fill="#9198a1" font-size="12">GUID, sections cryptiques, conflits illisibles</text>
  </g>

  <path d="M580 210 H630 l-9 -8 M630 210 l-9 8" stroke="#3fb950" stroke-width="3" fill="none" stroke-linecap="round"/>
  <text x="605" y="192" text-anchor="middle" fill="#3fb950" font-size="11" font-family="Consolas, monospace">migrate</text>

  <!-- Right: after -->
  <g>
    <rect x="640" y="110" width="480" height="200" rx="14" fill="url(#card)" stroke="#3fb950" stroke-width="2"/>
    <text x="880" y="146" text-anchor="middle" fill="#3fb950" font-size="16" font-weight="700">.slnx — du XML qui se lit</text>
    <rect x="670" y="164" width="420" height="110" rx="8" fill="#0d1117" stroke="#30363d"/>
    <g font-size="12" font-family="Consolas, monospace">
      <text x="686" y="192" fill="#38bdf8">&lt;Solution&gt;</text>
      <text x="686" y="214" fill="#e6edf3">  &lt;Folder Name="/src/"&gt;</text>
      <text x="686" y="236" fill="#3fb950">    &lt;Project Path="src/Orders.Api/…" /&gt;</text>
      <text x="686" y="258" fill="#38bdf8">  &lt;/Folder&gt; &lt;/Solution&gt;</text>
    </g>
    <text x="880" y="296" text-anchor="middle" fill="#9198a1" font-size="12">un diff de PR lisible en deux lignes</text>
  </g>

  <!-- CPM hub -->
  <g>
    <rect x="380" y="350" width="440" height="90" rx="14" fill="#0d1117" stroke="#ffa657" stroke-width="3"/>
    <text x="600" y="384" text-anchor="middle" fill="#ffa657" font-size="15" font-weight="700" font-family="Consolas, monospace">Directory.Packages.props</text>
    <text x="600" y="410" text-anchor="middle" fill="#e6edf3" font-size="12">UNE version par package — pour toute la solution</text>
    <text x="600" y="428" text-anchor="middle" fill="#9198a1" font-size="11" font-family="Consolas, monospace">Carter 9.0.0 · FluentValidation 12.1.0 · xunit 2.9.3</text>

    <g stroke="#ffa657" stroke-width="1.5" stroke-dasharray="5 4" stroke-opacity="0.7" fill="none">
      <path d="M380 400 Q280 420 230 470"/>
      <path d="M600 440 V470"/>
      <path d="M820 400 Q920 420 970 470"/>
    </g>
    <g fill="#12161d" stroke="#30363d" stroke-width="1.5">
      <rect x="140" y="470" width="180" height="44" rx="8"/>
      <rect x="510" y="470" width="180" height="44" rx="8"/>
      <rect x="880" y="470" width="180" height="44" rx="8"/>
    </g>
    <g fill="#9198a1" font-size="11" text-anchor="middle" font-family="Consolas, monospace">
      <text x="230" y="497">Orders.Api.csproj</text>
      <text x="600" y="497">Web.Front.csproj</text>
      <text x="970" y="497">Orders.Tests.csproj</text>
    </g>
  </g>

  <text x="600" y="560" text-anchor="middle" fill="#6e7681" font-size="16" letter-spacing="2">
    UNE  SOURCE  DE  VÉRITÉ  LISIBLE  ·  ONE  READABLE  SOURCE  OF  TRUTH
  </text>
</svg>
